<svg xmlns="http://www.w3.org/2000/svg" viewBox="0 0 76.94 76.98"><defs><style>.cls-1{font-size:10px;fill:#231815;font-family:Pretendard-Thin-KSCpc-EUC-H, Pretendard;}</style></defs><g id="레이어_2" data-name="레이어 2"><g id="레이어_1-2" data-name="레이어 1"><text class="cls-1" transform="translate(34.58 9.68) rotate(-3.17)">k</text><text class="cls-1" transform="translate(38.68 9.38) rotate(5.62)">o</text><text class="cls-1" transform="translate(43.82 9.95) rotate(13.45)">r</text><text class="cls-1" transform="matrix(0.93, 0.36, -0.36, 0.93, 46.38, 10.45)">e</text><text class="cls-1" transform="matrix(0.86, 0.51, -0.51, 0.86, 51.15, 12.27)">a</text><text class="cls-1" transform="translate(55.28 14.81) rotate(37.52)"> </text><text class="cls-1" transform="matrix(0.72, 0.69, -0.69, 0.72, 56.92, 15.97)">s</text><text class="cls-1" transform="translate(60.07 19.07) rotate(49.87)">i</text><text class="cls-1" transform="translate(61.26 20.49) rotate(53.47)">l</text><text class="cls-1" transform="translate(62.36 21.81) rotate(59.8)">v</text><text class="cls-1" transform="matrix(0.36, 0.93, -0.93, 0.36, 64.64, 25.59)">e</text><text class="cls-1" transform="matrix(0.23, 0.97, -0.97, 0.23, 66.42, 30.44)">r</text><text class="cls-1" transform="translate(67.06 33.21) rotate(81.76)"> </text><text class="cls-1" transform="translate(67.47 35.14) rotate(89.07)">A</text><text class="cls-1" transform="translate(67.47 40.74) rotate(97.33)">r</text><text class="cls-1" transform="translate(67.07 43.87) rotate(103.76)">t</text><text class="cls-1" transform="translate(66.34 46.81) rotate(108.83)"> </text><text class="cls-1" transform="translate(65.67 48.78) rotate(112.97)"> </text><text class="cls-1" transform="matrix(-0.49, 0.87, -0.87, -0.49, 64.95, 50.68)">k</text><text class="cls-1" transform="translate(62.99 54.3) rotate(128.25)">o</text><text class="cls-1" transform="matrix(-0.72, 0.69, -0.69, -0.72, 59.74, 58.32)">r</text><text class="cls-1" transform="translate(57.94 60.21) rotate(143.47)">e</text><text class="cls-1" transform="translate(53.86 63.25) rotate(153.18)">a</text><text class="cls-1" transform="translate(49.5 65.38) rotate(159.98)"> </text><text class="cls-1" transform="translate(47.62 66.14) rotate(166.38)">s</text><text class="cls-1" transform="matrix(-0.99, 0.13, -0.13, -0.99, 43.33, 67.12)">i</text><text class="cls-1" transform="translate(41.48 67.37) rotate(176.1)">l</text><text class="cls-1" transform="matrix(-1, -0.04, 0.04, -1, 39.79, 67.58)">v</text><text class="cls-1" transform="translate(35.37 67.46) rotate(-168.53)">e</text><text class="cls-1" transform="matrix(-0.94, -0.33, 0.33, -0.94, 30.33, 66.37)">r</text><text class="cls-1" transform="matrix(-0.91, -0.41, 0.41, -0.91, 27.64, 65.42)"> </text><text class="cls-1" transform="translate(25.78 64.73) rotate(-148.24)">A</text><text class="cls-1" transform="matrix(-0.77, -0.64, 0.64, -0.77, 21.07, 61.71)">r</text><text class="cls-1" transform="matrix(-0.69, -0.72, 0.72, -0.69, 18.66, 59.7)">t</text><text class="cls-1" transform="matrix(-0.62, -0.78, 0.78, -0.62, 16.57, 57.49)"> </text><text class="cls-1" transform="matrix(-0.54, -0.84, 0.84, -0.54, 15.24, 55.96)">k</text><text class="cls-1" transform="translate(12.99 52.53) rotate(-113.45)">o</text><text class="cls-1" transform="translate(10.99 47.77) rotate(-105.59)">r</text><text class="cls-1" transform="matrix(-0.14, -0.99, 0.99, -0.14, 10.19, 45.28)">e</text><text class="cls-1" transform="translate(9.46 40.25) rotate(-88.46)">a</text><text class="cls-1" transform="translate(9.66 35.37) rotate(-81.67)"> </text><text class="cls-1" transform="translate(9.88 33.37) rotate(-75.3)">s</text><text class="cls-1" transform="matrix(0.36, -0.93, 0.93, 0.36, 11.05, 29.12)">i</text><text class="cls-1" transform="matrix(0.41, -0.91, 0.91, 0.41, 11.7, 27.4)">l</text><text class="cls-1" transform="matrix(0.51, -0.86, 0.86, 0.51, 12.32, 25.81)">v</text><text class="cls-1" transform="matrix(0.64, -0.77, 0.77, 0.64, 14.54, 21.96)">e</text><text class="cls-1" transform="translate(17.9 18.06) rotate(-42.27)">r</text><text class="cls-1" transform="matrix(0.79, -0.61, 0.61, 0.79, 20.02, 16.14)"> </text><text class="cls-1" transform="translate(21.52 14.82) rotate(-29.94)">A</text><text class="cls-1" transform="matrix(0.93, -0.37, 0.37, 0.93, 26.4, 12.11)">r</text><text class="cls-1" transform="matrix(0.96, -0.26, 0.26, 0.96, 29.32, 10.95)">t</text></g></g></svg>