<svg width="80" height="80" viewBox="0 0 80 80" fill="none" xmlns="http://www.w3.org/2000/svg">
  <path d="M42.1667 67.7908C40.6718 68.2765 39.0173 67.8523 38.0328 66.627C37.6097 66.1003 37.1986 65.5625 36.8001 65.014C31.6058 57.8646 28.8081 49.2544 28.8081 40.4173C28.8081 31.5802 31.6058 22.9699 36.8001 15.8205C37.1983 15.2724 37.6091 14.735 38.0319 14.2086C39.0164 12.9832 40.671 12.559 42.1659 13.0447L48.7083 15.1705C51.2404 15.9932 52.2731 19.0198 51.0752 21.3974C50.3487 22.8395 49.7042 24.329 49.1471 25.8596C48.8679 26.6266 48.6122 27.3998 48.3799 28.1781C47.83 30.0208 45.8596 31.1191 44.0591 30.4439C41.4441 29.4633 38.6546 31.3964 38.6546 34.1893V46.6453C38.6546 49.4381 41.4441 51.3712 44.0591 50.3906C45.9589 49.6781 48.0411 50.8145 48.6665 52.7447C48.8181 53.2127 48.9783 53.6786 49.1471 54.1423C49.7865 55.8991 50.5411 57.6018 51.4027 59.2407C52.6571 61.6269 51.6365 64.7139 49.0726 65.5469L42.1667 67.7908Z" stroke="#C2CCDE" stroke-linecap="round" stroke-linejoin="round" />
</svg>