<?xml version="1.0" standalone="no"?>
<!DOCTYPE svg PUBLIC "-//W3C//DTD SVG 20010904//EN"
 "http://www.w3.org/TR/2001/REC-SVG-20010904/DTD/svg10.dtd">
<svg version="1.0" xmlns="http://www.w3.org/2000/svg"
 width="410.000000pt" height="62.000000pt" viewBox="0 0 410.000000 62.000000"
 preserveAspectRatio="xMidYMid meet">

<g transform="translate(0.000000,62.000000) scale(0.100000,-0.100000)"
fill="#000000" stroke="none">
<path d="M0 310 l0 -310 180 0 180 0 0 35 0 35 -145 0 -145 0 0 275 0 275 -35
0 -35 0 0 -310z"/>
<path d="M580 310 l0 -310 175 0 175 0 0 35 0 35 -140 0 -141 0 3 116 3 117
103 -2 102 -2 0 35 0 36 -105 0 -105 0 0 90 0 90 135 0 135 0 0 35 0 35 -170
0 -170 0 0 -310z"/>
<path d="M1180 310 l0 -310 35 0 35 0 2 222 3 222 96 -154 c128 -209 118 -209
246 -3 l98 158 3 -223 2 -222 35 0 35 0 0 310 0 310 -23 0 c-20 0 -43 -32
-147 -201 -113 -185 -125 -200 -137 -183 -8 11 -64 101 -126 202 -92 150 -115
182 -134 182 l-23 0 0 -310z"/>
<path d="M2211 598 c-5 -13 -64 -151 -130 -307 -67 -156 -121 -285 -121 -287
0 -2 15 -4 34 -4 33 0 35 2 69 83 l36 82 144 3 144 3 35 -83 c34 -82 35 -83
72 -86 21 -2 36 0 33 5 -2 4 -62 144 -132 311 -117 273 -131 302 -152 302 -15
0 -27 -8 -32 -22z m92 -231 l55 -127 -114 0 c-63 0 -114 1 -114 3 0 2 18 46
41 98 22 52 47 109 55 128 8 19 16 32 18 30 3 -2 29 -61 59 -132z"/>
<path d="M2730 310 l0 -310 35 0 35 0 0 310 0 310 -35 0 -35 0 0 -310z"/>
<path d="M3080 310 l0 -310 35 0 35 0 0 153 0 152 42 -1 43 -1 103 -134 c57
-74 109 -142 116 -152 10 -14 24 -17 54 -15 l41 3 -109 145 c-60 80 -110 148
-110 152 0 3 13 9 29 13 39 8 89 60 103 106 23 78 -28 166 -108 188 -21 6 -92
11 -156 11 l-118 0 0 -310z m283 220 c33 -26 41 -62 23 -105 -19 -45 -46 -55
-152 -55 l-84 0 0 90 0 90 94 0 c78 0 97 -3 119 -20z"/>
<path d="M3750 310 l0 -310 175 0 175 0 0 35 0 35 -140 0 -140 0 0 120 0 120
105 0 105 0 0 30 0 30 -105 0 -105 0 0 90 0 90 135 0 135 0 0 35 0 35 -170 0
-170 0 0 -310z"/>
</g>
</svg>
