<?xml version="1.0" encoding="utf-8"?>
<!-- Generator: Adobe Illustrator 25.4.1, SVG Export Plug-In . SVG Version: 6.00 Build 0)  -->
<svg version="1.1" id="Layer_1" xmlns="http://www.w3.org/2000/svg" xmlns:xlink="http://www.w3.org/1999/xlink" x="0px" y="0px"
	 viewBox="0 0 100 100" style="enable-background:new 0 0 100 100;" xml:space="preserve">
<style type="text/css">
	.st0{fill:#262320;}
	.st1{fill:none;}
</style>
<g>
	<path class="st0" d="M23.7,29.8c0.5-0.6,0.7-1.2,0.8-1.9c0.1-0.6-0.1-1.2-0.4-1.6l1.2,1.5l-3.7,4.8c0.1-0.1,0.1-0.2,0.2-0.5
		s0-0.6-0.4-0.8l-5.2-4C16,27,15.6,27,15.4,27.2c-0.2,0.1-0.3,0.2-0.4,0.3l1.7-2.2c-0.1,0.1-0.1,0.2-0.2,0.5s0,0.6,0.4,0.8l5.1,3.9
		c0.6,0.4,1,0.3,1.3-0.1L23.7,29.8z"/>
	<path class="st0" d="M29.1,21.8l0-0.2l0.9,1.8l-4.7,4.2c0.1-0.1,0.2-0.2,0.3-0.4c0.1-0.2,0.1-0.6-0.2-0.9l-4.5-5
		c-0.3-0.3-0.6-0.4-0.8-0.3s-0.4,0.2-0.5,0.3l4.4-3.9l1.5,1l-0.3-0.1c-0.2-0.1-0.8-0.1-1.2,0c-0.4,0.1-0.7,0.2-1,0.3
		c-0.2,0.1-0.7,0.5-1.2,1l-0.7,0.6l2.6,2.9l0.6-0.5c0.8-0.7,0.7-1.5,0.5-1.7l0-0.1l1.4,1.6c0,0-0.8-0.6-1.8,0.3l-0.6,0.5l2.2,2.4
		c0.6,0.6,1,0.4,1.2,0.1l0.7-0.6c0.5-0.5,0.9-1.1,1.1-1.9C29.2,22.7,29.2,22.1,29.1,21.8z"/>
	<path class="st0" d="M38.1,17.8c0.2,0.4,0.5,0.5,0.8,0.5c0.3,0,0.4-0.1,0.5-0.1l-2.5,1.3c0.1-0.1,0.2-0.1,0.4-0.4
		c0.2-0.2,0.2-0.6,0-0.9l-2.6-5c-0.2-0.4-0.3-0.5-0.4-0.5c-0.1,0-0.1,0.3,0,0.6l0.5,7.3l-6.4-4.5c-0.3-0.2-0.4-0.2-0.5,0
		c0,0.1,0,0.3,0.2,0.5l2.3,4.5c0.3,0.5,0.7,0.8,0.9,0.9c0.5,0.1,0.9-0.1,0.9-0.1L30,23.1c0.1,0,0.1-0.1,0.3-0.3
		c0.2-0.3,0.4-0.8,0-1.6L28,16.7c-0.7-1.3-1.6-1.2-1.7-1.1l0,0l1.7-0.9l5.6,4c0.7,0.5,1,0.3,0.9-0.5L34,11.6l1.5-0.8
		c0,0-0.7,0.4-0.3,1.3L38.1,17.8z"/>
	<path class="st0" d="M45.1,16.1c0.4,0.6,0.8,0.9,1.3,0.8l-2.7,0.6c0,0,1-0.3,0.4-1.1l-1.4-2.2L40,14.7L39.7,17
		c-0.1,0.9,0.2,1.2,1,1.1l-2.2,0.5c0.5-0.2,0.9-0.7,1-1.7l1.1-7.7l0.1,0.1L45.1,16.1z M40.4,12l-0.3,2.6l2.6-0.6l-1.5-2.4
		c-0.2-0.4-0.4-0.5-0.5-0.5C40.6,11.1,40.5,11.4,40.4,12z M46.4,16.9L46.4,16.9L46.4,16.9z"/>
	<path class="st0" d="M47.6,16.1c0,0.4,0.2,0.6,0.5,0.7s0.4,0.1,0.5,0.1l-2.8,0.2c0.1,0,0.3,0,0.5-0.2c0.2-0.1,0.4-0.4,0.4-0.8
		l-0.5-6.6c0-0.4-0.2-0.6-0.5-0.7c-0.3-0.1-0.4-0.1-0.5-0.1L48,8.6c-0.1,0-0.3,0.1-0.5,0.2c-0.2,0.1-0.4,0.4-0.4,0.8L47.6,16.1z"/>
	<path class="st0" d="M54.7,16.1c0.2,0.5,0.7,0.9,0.9,1l0.2,0.1l-1.5-0.1c-0.2-0.3-0.5-0.7-0.8-1.2l-1-2c-0.5-1-1.2-1-2.1-1.1
		l-0.2,3.3c0,0.2,0,0.4,0.2,0.5c0.3,0.3,0.5,0.2,0.7,0.3l-2.7-0.1c0.1,0,0.3,0,0.5-0.1c0.3-0.1,0.5-0.3,0.5-0.7l0.4-6.7
		c0-0.4-0.2-0.6-0.4-0.8c-0.2-0.1-0.4-0.1-0.5-0.1c0.3,0,0.8,0,1.4,0.1s1.1,0,1.4,0.1c1.6,0.1,2.4,0.4,2.8,1.1
		c0.2,0.3,0.3,0.7,0.2,1.2c-0.1,0.7-0.4,1.3-0.9,1.6c-0.4,0.2-0.8,0.4-1.2,0.4c0.3,0.1,0.6,0.5,1,1.1L54.7,16.1z M53.9,10.8
		C53.9,9.9,53.7,9.3,53,9c-0.6-0.3-1.3-0.4-2.4-0.4l-0.2,4.1c0.3,0,0.7,0,1.1,0C53,12.7,53.8,12,53.9,10.8z"/>
	<path class="st0" d="M61.7,17l0.1-0.1l-1,1.8l-6.1-1.5c0.1,0,0.3,0,0.5,0c0.3,0,0.5-0.2,0.6-0.6l1.6-6.5c0.1-0.4,0-0.7-0.2-0.8
		s-0.3-0.2-0.5-0.2l5.7,1.4l0,1.8l-0.1-0.3c-0.1-0.2-0.4-0.7-0.6-1c-0.3-0.3-0.5-0.5-0.8-0.6c-0.2-0.1-0.8-0.3-1.5-0.5l-0.9-0.2
		l-0.9,3.8l0.8,0.2c1,0.2,1.6-0.3,1.7-0.5l0-0.1l-0.5,2.1c0,0,0.1-1-1.3-1.4l-0.8-0.2l-0.8,3.2c-0.2,0.8,0.2,1,0.6,1.1l0.9,0.2
		c0.7,0.2,1.4,0.1,2.2-0.1C61,17.5,61.5,17.1,61.7,17z"/>
	<path class="st0" d="M66.2,15.9c0.1-0.2,0.4-0.3,0.6-0.2c0.2,0.1,0.3,0.4,0.2,0.6c-0.1,0.2-0.4,0.3-0.6,0.2
		C66.1,16.4,66.1,16.2,66.2,15.9z"/>
	<path class="st0" d="M70.3,23.8c0.6,0.5,1.2,0.7,1.9,0.8c0.7,0.1,1.2,0,1.6-0.3l-1.5,1.2l-4.8-3.7c0.1,0.1,0.2,0.1,0.5,0.2
		c0.3,0.1,0.6,0,0.8-0.4l4-5.2c0.2-0.3,0.3-0.6,0.1-0.9c-0.1-0.2-0.2-0.3-0.3-0.4l2.2,1.7c-0.1-0.1-0.2-0.1-0.5-0.2
		c-0.3-0.1-0.6,0-0.8,0.4l-3.9,5.1c-0.4,0.6-0.3,0.9,0.1,1.3L70.3,23.8z"/>
	<path class="st0" d="M78.3,29.3l0.2,0l-1.8,0.9l-4.2-4.7c0.1,0.1,0.2,0.2,0.4,0.3c0.2,0.1,0.6,0.1,0.9-0.2l5-4.4
		c0.3-0.2,0.4-0.6,0.3-0.8c-0.1-0.2-0.2-0.4-0.3-0.5l3.9,4.4l-1,1.5l0.1-0.3c0.1-0.2,0.1-0.8,0.1-1.2c-0.1-0.4-0.2-0.7-0.3-1
		c-0.1-0.2-0.4-0.7-1-1.2l-0.6-0.7L77,23.9l0.5,0.6c0.7,0.8,1.4,0.7,1.7,0.5l0.1,0l-1.6,1.4c0,0,0.6-0.8-0.3-1.8L76.9,24l-2.4,2.2
		c-0.6,0.6-0.4,1-0.2,1.2l0.6,0.7c0.5,0.5,1.1,0.9,1.9,1.1C77.4,29.3,78,29.3,78.3,29.3z"/>
	<path class="st0" d="M82.2,38.3c-0.3,0.2-0.5,0.5-0.5,0.8c0,0.3,0.1,0.4,0.1,0.5l-1.3-2.5c0.1,0.1,0.2,0.2,0.3,0.4
		c0.2,0.2,0.6,0.2,0.9,0l5-2.6c0.4-0.2,0.5-0.3,0.5-0.4c0-0.1-0.3-0.1-0.7-0.1l-7.3,0.5l4.6-6.3c0.2-0.3,0.2-0.4,0-0.5
		c-0.1,0-0.3,0-0.5,0.2l-4.5,2.3c-0.5,0.3-0.8,0.7-0.9,0.9c-0.1,0.5,0.1,0.9,0.1,0.9L77,30.1c0,0.1,0.1,0.1,0.3,0.3
		c0.3,0.2,0.8,0.4,1.6,0l4.5-2.3c1.3-0.7,1.2-1.5,1.1-1.7l0,0l0.9,1.7l-4,5.6c-0.5,0.7-0.3,1,0.5,0.9l6.7-0.4l0.8,1.5
		c0,0-0.4-0.8-1.3-0.3L82.2,38.3z"/>
	<path class="st0" d="M83.9,45.3c-0.6,0.4-0.8,0.8-0.8,1.3l-0.6-2.7c0,0,0.3,1,1.1,0.4l2.2-1.4l-0.6-2.7L83,39.9
		c-0.9-0.1-1.2,0.2-1.1,1l-0.5-2.2c0.2,0.5,0.7,0.9,1.7,1l7.7,1.1l-0.1,0.1L83.9,45.3z M83.1,46.6L83.1,46.6L83.1,46.6z M88.1,40.6
		l-2.6-0.3l0.6,2.6l2.4-1.5c0.3-0.2,0.5-0.4,0.5-0.5C88.9,40.8,88.6,40.7,88.1,40.6z"/>
	<path class="st0" d="M83.9,47.8c-0.4,0-0.7,0.2-0.7,0.5s-0.1,0.4-0.1,0.5l-0.2-2.8c0,0.1,0,0.3,0.2,0.5c0.1,0.2,0.4,0.4,0.8,0.4
		l6.6-0.5c0.4,0,0.7-0.2,0.7-0.5c0.1-0.3,0.1-0.4,0.1-0.5l0.2,2.8c0-0.1,0-0.3-0.2-0.5c-0.1-0.2-0.4-0.4-0.8-0.4L83.9,47.8z"/>
	<path class="st0" d="M83.9,54.9c-0.5,0.2-0.9,0.7-1,0.9L82.8,56l0.1-1.5c0.3-0.2,0.7-0.5,1.2-0.7l2-1c1-0.5,1-1.2,1.1-2.1l-3.3-0.2
		c-0.2,0-0.4,0-0.5,0.2c-0.3,0.3-0.3,0.5-0.3,0.7l0.2-2.7c0,0.1,0,0.3,0.1,0.5c0.1,0.3,0.3,0.5,0.7,0.5l6.7,0.4
		c0.4,0,0.7-0.1,0.8-0.4s0.1-0.4,0.1-0.5c0,0.3,0,0.8-0.1,1.4c0,0.6,0,1.1-0.1,1.4c-0.1,1.6-0.4,2.4-1.2,2.8
		C90,54.9,89.6,55,89.1,55c-0.7-0.1-1.3-0.4-1.6-1c-0.2-0.4-0.4-0.8-0.4-1.2c-0.1,0.3-0.5,0.6-1.1,0.9L83.9,54.9z M89.2,54.1
		c0.9,0.1,1.5-0.2,1.8-0.8s0.4-1.3,0.4-2.3l-4.1-0.2c0,0.3,0,0.7,0,1.1C87.3,53.2,88,54,89.2,54.1z"/>
	<path class="st0" d="M83,61.9l0.1,0.1l-1.8-1l1.6-6.1c0,0.1-0.1,0.3,0,0.5c0,0.3,0.2,0.5,0.6,0.6l6.5,1.7c0.4,0.1,0.7,0,0.8-0.2
		S91,57.1,91,57l-1.5,5.7l-1.8,0l0.3-0.1c0.2-0.1,0.7-0.4,1-0.6c0.3-0.3,0.5-0.5,0.6-0.8c0.1-0.2,0.3-0.8,0.5-1.5l0.2-0.9l-3.7-1
		l-0.2,0.8c-0.2,1,0.2,1.6,0.5,1.7l0.1,0l-2.1-0.5c0,0,1,0.1,1.4-1.2l0.2-0.8L83.5,57c-0.8-0.2-1,0.2-1.1,0.6l-0.2,0.9
		c-0.2,0.7-0.1,1.4,0.1,2.2C82.5,61.2,82.8,61.7,83,61.9z"/>
	<path class="st0" d="M84,66.4c0.2,0.1,0.3,0.4,0.2,0.6c-0.1,0.2-0.4,0.3-0.6,0.2c-0.2-0.1-0.3-0.4-0.2-0.6
		C83.5,66.3,83.8,66.2,84,66.4z"/>
	<path class="st0" d="M76.1,70.5c-0.5,0.6-0.7,1.2-0.8,1.9c-0.1,0.7,0.1,1.2,0.3,1.6l-1.2-1.5l3.7-4.8c-0.1,0.1-0.2,0.2-0.2,0.5
		s0,0.6,0.3,0.8l5.2,4.1c0.3,0.2,0.6,0.3,0.9,0.1c0.2-0.1,0.3-0.2,0.4-0.3L83,75.1c0.1-0.1,0.2-0.2,0.2-0.5c0.1-0.3,0-0.6-0.3-0.8
		l-5.1-4c-0.6-0.4-0.9-0.3-1.3,0.1L76.1,70.5z"/>
	<path class="st0" d="M70.6,78.4l0,0.2l-0.9-1.8l4.7-4.1c-0.1,0.1-0.2,0.2-0.3,0.4c-0.1,0.2-0.1,0.6,0.2,0.9l4.4,5
		c0.2,0.3,0.6,0.4,0.8,0.3s0.4-0.2,0.5-0.3l-4.4,3.8l-1.4-1l0.3,0.1c0.2,0.1,0.8,0.1,1.2,0.1c0.4-0.1,0.7-0.2,0.9-0.3
		c0.2-0.1,0.7-0.4,1.2-0.9l0.7-0.6l-2.5-2.9l-0.6,0.5c-0.8,0.7-0.7,1.4-0.5,1.7l0,0.1l-1.4-1.6c0,0,0.8,0.6,1.8-0.3l0.6-0.5
		l-2.2-2.4c-0.6-0.6-1-0.4-1.2-0.2l-0.7,0.6c-0.6,0.5-0.9,1.1-1.1,1.9C70.5,77.5,70.5,78.1,70.6,78.4z"/>
	<path class="st0" d="M61.5,82.3c-0.2-0.3-0.5-0.5-0.8-0.5c-0.3,0-0.4,0.1-0.5,0.1l2.5-1.3c-0.1,0.1-0.2,0.2-0.4,0.3
		c-0.2,0.2-0.2,0.6,0,0.9l2.6,5.1c0.2,0.4,0.3,0.5,0.4,0.5s0.1-0.3,0.1-0.7l-0.4-7.3l6.3,4.6c0.3,0.2,0.4,0.2,0.5,0
		c0-0.1,0-0.3-0.2-0.5l-2.3-4.5c-0.3-0.5-0.7-0.8-0.9-0.9c-0.5-0.1-0.9,0.1-0.9,0.1l2.2-1.1c-0.1,0-0.2,0.1-0.3,0.3
		c-0.2,0.3-0.4,0.8,0,1.6l2.3,4.5c0.7,1.3,1.6,1.2,1.7,1.1l0,0l-1.7,0.9l-5.6-4c-0.7-0.5-1-0.3-0.9,0.5l0.4,6.7l-1.4,0.7
		c0.1,0,0.8-0.4,0.3-1.3L61.5,82.3z"/>
	<path class="st0" d="M53.2,83.2L53.2,83.2L53.2,83.2z M58.9,90.7L58.9,90.7l1.2-7.6c0.1-0.9,0.5-1.5,1-1.7l-2.2,0.5
		c0.8-0.1,1.2,0.3,1,1.1l-0.3,2.3l-2.8,0.6l-1.4-2.2c-0.5-0.8,0.5-1.1,0.5-1.1l-2.7,0.6c0.5-0.1,0.9,0.2,1.3,0.8L58.9,90.7z M59,89
		c-0.1,0-0.3-0.2-0.5-0.5l-1.5-2.4l2.6-0.6l-0.4,2.6C59.1,88.7,59,89,59,89z"/>
	<path class="st0" d="M52,83.9c0-0.4-0.2-0.7-0.5-0.7c-0.3-0.1-0.4-0.1-0.5-0.1l2.8-0.2c-0.1,0-0.3,0-0.5,0.2s-0.4,0.4-0.4,0.8
		l0.5,6.6c0,0.4,0.2,0.7,0.5,0.7c0.3,0.1,0.4,0.1,0.5,0.1l-2.8,0.2c0.1,0,0.3,0,0.5-0.2c0.2-0.1,0.4-0.4,0.4-0.8L52,83.9z"/>
	<path class="st0" d="M45,83.8c-0.2-0.5-0.7-0.9-0.9-1l-0.2-0.1l1.5,0.1c0.2,0.3,0.5,0.7,0.7,1.2l1,2c0.5,1,1.2,1,2.1,1.1l0.2-3.3
		c0-0.2,0-0.4-0.2-0.5c-0.3-0.3-0.5-0.3-0.7-0.3l2.7,0.2c-0.1,0-0.3,0-0.5,0.1c-0.3,0.1-0.5,0.3-0.5,0.7l-0.4,6.7
		c0,0.4,0.1,0.7,0.4,0.8c0.2,0.1,0.4,0.1,0.5,0.1c-0.3,0-0.8,0-1.4-0.1s-1.1-0.1-1.4-0.1c-1.6-0.1-2.4-0.4-2.8-1.2
		c-0.2-0.3-0.2-0.7-0.2-1.2c0.1-0.7,0.4-1.3,1-1.6c0.4-0.2,0.8-0.4,1.2-0.4c-0.3-0.1-0.6-0.5-0.9-1.1L45,83.8z M45.7,89.2
		c-0.1,0.9,0.2,1.5,0.8,1.8c0.6,0.3,1.3,0.4,2.3,0.4l0.3-4.1c-0.3,0-0.7,0-1.1-0.1C46.6,87.2,45.8,88,45.7,89.2z"/>
	<path class="st0" d="M38,82.9l-0.1,0.1l1-1.8l6.1,1.6c-0.1,0-0.3-0.1-0.5,0c-0.3,0-0.5,0.2-0.6,0.6L42.1,90c-0.1,0.4,0,0.7,0.2,0.8
		s0.3,0.2,0.5,0.2l-5.7-1.5l0-1.8l0.1,0.3c0.1,0.2,0.3,0.7,0.6,1.1c0.3,0.3,0.5,0.5,0.8,0.6c0.2,0.1,0.8,0.3,1.5,0.5l0.9,0.2l1-3.7
		l-0.8-0.2c-1-0.2-1.6,0.2-1.7,0.5l0,0.1L40,85c0,0-0.1,1,1.2,1.4l0.8,0.2l0.8-3.2c0.2-0.8-0.2-1-0.5-1.1l-0.9-0.2
		c-0.7-0.2-1.4-0.1-2.2,0.1C38.7,82.4,38.2,82.8,38,82.9z"/>
	<path class="st0" d="M33.5,83.9c-0.1,0.2-0.4,0.3-0.6,0.2c-0.2-0.1-0.3-0.4-0.2-0.6c0.1-0.2,0.4-0.3,0.6-0.2
		C33.5,83.4,33.6,83.7,33.5,83.9z"/>
	<path class="st0" d="M29.4,76c-0.6-0.5-1.2-0.7-1.9-0.8c-0.6-0.1-1.2,0-1.6,0.3l1.5-1.2l4.8,3.8c-0.1-0.1-0.2-0.2-0.5-0.2
		s-0.6,0-0.8,0.3l-4.1,5.2c-0.2,0.3-0.3,0.6-0.1,0.9c0.1,0.2,0.2,0.3,0.3,0.4l-2.2-1.7c0.1,0.1,0.2,0.2,0.5,0.2s0.6,0,0.8-0.3l4-5.1
		c0.4-0.6,0.4-0.9-0.1-1.3L29.4,76z"/>
	<path class="st0" d="M21.5,70.4l-0.2,0l1.8-0.9l4.1,4.8c-0.1-0.1-0.2-0.2-0.4-0.3c-0.2-0.1-0.6-0.1-0.9,0.2l-5,4.4
		c-0.3,0.2-0.4,0.6-0.3,0.8s0.2,0.4,0.3,0.5l-3.8-4.4l1-1.4L18,74.2C18,74.5,17.9,75,18,75.4c0.1,0.4,0.1,0.7,0.3,1
		c0.1,0.3,0.5,0.7,1,1.3l0.6,0.7l2.9-2.5l-0.5-0.6c-0.7-0.8-1.4-0.7-1.7-0.6l-0.1,0l1.6-1.4c0,0-0.6,0.8,0.2,1.8l0.5,0.6l2.5-2.1
		c0.6-0.6,0.4-1,0.2-1.2l-0.6-0.7c-0.5-0.6-1.1-0.9-1.9-1.1C22.4,70.4,21.8,70.4,21.5,70.4z"/>
	<path class="st0" d="M17.7,61.4c0.4-0.2,0.5-0.5,0.5-0.8c0-0.3-0.1-0.4-0.1-0.5l1.3,2.5c-0.1-0.1-0.1-0.2-0.3-0.4
		c-0.2-0.2-0.5-0.2-0.9,0L13,64.7c-0.4,0.2-0.6,0.3-0.5,0.4c0,0.1,0.3,0.1,0.6,0.1l7.3-0.4l-4.6,6.3c-0.2,0.3-0.2,0.4,0,0.5
		c0.1,0,0.3,0,0.5-0.2l4.5-2.3c0.5-0.3,0.8-0.7,0.9-0.9c0.1-0.5-0.1-0.9-0.1-0.9l1.1,2.2c0-0.1-0.1-0.2-0.3-0.3
		c-0.3-0.2-0.8-0.4-1.6,0l-4.5,2.3c-1.3,0.7-1.2,1.5-1.1,1.7l0,0l-0.9-1.7l4.1-5.6c0.5-0.7,0.3-1-0.5-0.9l-6.7,0.3l-0.7-1.5
		c0,0,0.4,0.8,1.3,0.3L17.7,61.4z"/>
	<path class="st0" d="M16,54.3c0.6-0.4,0.9-0.8,0.8-1.3l0.6,2.7c0,0-0.3-1-1.1-0.5L14,56.7l0.6,2.8l2.3,0.3c0.9,0.2,1.3-0.2,1.1-1
		l0.5,2.2c-0.1-0.5-0.7-0.9-1.7-1l-7.6-1.2l0.1-0.1L16,54.3z M11.8,59l2.6,0.4l-0.6-2.6l-2.4,1.5c-0.4,0.2-0.5,0.4-0.5,0.5
		C11,58.8,11.3,58.9,11.8,59z M16.8,53.1L16.8,53.1L16.8,53.1z"/>
	<path class="st0" d="M16.1,51.8c0.4,0,0.7-0.2,0.7-0.5s0.1-0.4,0.1-0.5l0.2,2.8c0-0.1,0-0.3-0.1-0.5c-0.1-0.2-0.4-0.4-0.8-0.4
		l-6.6,0.4c-0.4,0-0.7,0.2-0.7,0.5S8.7,54,8.7,54.1l-0.2-2.8c0,0.1,0,0.3,0.1,0.5c0.1,0.2,0.4,0.4,0.8,0.4L16.1,51.8z"/>
	<path class="st0" d="M16.2,44.8c0.5-0.2,0.9-0.7,1-0.9l0.1-0.2l-0.1,1.5c-0.3,0.2-0.7,0.5-1.2,0.7l-2,1c-1.1,0.5-1.1,1.2-1.1,2.1
		l3.3,0.2c0.2,0,0.4,0,0.5-0.2c0.3-0.3,0.3-0.5,0.3-0.7L16.8,51c0-0.1,0-0.3-0.1-0.5C16.6,50.2,16.4,50,16,50l-6.7-0.5
		c-0.4,0-0.6,0.1-0.8,0.4s-0.1,0.4-0.1,0.5c0-0.3,0-0.8,0.1-1.4c0-0.6,0.1-1.1,0.1-1.4C8.7,46,9,45.2,9.8,44.8
		c0.3-0.2,0.7-0.2,1.2-0.2c0.7,0.1,1.3,0.4,1.6,1c0.2,0.4,0.4,0.8,0.4,1.2c0.1-0.3,0.5-0.6,1.1-0.9L16.2,44.8z M10.9,45.5
		c-0.9-0.1-1.5,0.2-1.8,0.8c-0.3,0.6-0.4,1.3-0.5,2.3l4.1,0.3c0-0.3,0-0.7,0.1-1.1C12.8,46.4,12.1,45.6,10.9,45.5z"/>
	<path class="st0" d="M17.1,37.8L17,37.7l1.8,1l-1.6,6.1c0-0.1,0-0.3,0-0.5c0-0.3-0.2-0.5-0.6-0.6l-6.4-1.7c-0.4-0.1-0.7,0-0.8,0.2
		c-0.2,0.2-0.2,0.3-0.2,0.5l1.5-5.7l1.8,0L12,37.1c-0.2,0.1-0.7,0.3-1.1,0.6c-0.3,0.3-0.5,0.5-0.6,0.8c-0.1,0.2-0.3,0.8-0.5,1.5
		l-0.2,0.9l3.7,1l0.2-0.8c0.2-1-0.2-1.6-0.5-1.7l-0.1,0l2.1,0.6c0,0-1-0.1-1.4,1.2l-0.2,0.8l3.2,0.8c0.8,0.2,1-0.2,1.1-0.5l0.2-0.9
		c0.2-0.7,0.1-1.4-0.1-2.2C17.6,38.5,17.3,38,17.1,37.8z"/>
	<path class="st0" d="M16.2,33.3c-0.2-0.1-0.3-0.4-0.2-0.6c0.1-0.2,0.4-0.3,0.6-0.2c0.2,0.1,0.3,0.4,0.2,0.6
		C16.7,33.3,16.4,33.4,16.2,33.3z"/>
</g>
<g>
	<g>
		<path class="st1" d="M36,57.5c-0.1,0-0.3,0-0.4-0.2c-0.2-0.2-0.2-0.5,0-0.7l14-14c0.2-0.2,0.5-0.2,0.7,0c0.2,0.2,0.2,0.5,0,0.7
			l-14,14C36.3,57.5,36.1,57.5,36,57.5z"/>
	</g>
	<g>
		<path class="st1" d="M64,57.5c-0.1,0-0.3,0-0.4-0.2l-14-14c-0.2-0.2-0.2-0.5,0-0.7c0.2-0.2,0.5-0.2,0.7,0l14,14
			c0.2,0.2,0.2,0.5,0,0.7C64.3,57.5,64.1,57.5,64,57.5z"/>
	</g>
</g>
</svg>
