<?xml version="1.0" encoding="utf-8"?>
<!-- Generator: Adobe Illustrator 25.4.1, SVG Export Plug-In . SVG Version: 6.00 Build 0)  -->
<svg version="1.1" id="Layer_1" xmlns="http://www.w3.org/2000/svg" xmlns:xlink="http://www.w3.org/1999/xlink" x="0px" y="0px"
	 viewBox="0 0 100 100" style="enable-background:new 0 0 100 100;" xml:space="preserve">
<style type="text/css">
	.st0{fill:none;}
	.st1{fill:#FFFFFF;}
</style>
<g>
	<path class="st0" d="M23.66,29.8c0.46-0.6,0.72-1.23,0.79-1.87c0.06-0.65-0.06-1.19-0.35-1.64l1.25,1.47l-3.68,4.83
		c0.09-0.11,0.15-0.23,0.22-0.49s-0.03-0.58-0.36-0.83l-5.25-3.99c-0.32-0.24-0.64-0.26-0.87-0.12c-0.22,0.13-0.32,0.22-0.41,0.34
		l1.69-2.22c-0.09,0.11-0.15,0.23-0.22,0.49s0.03,0.57,0.35,0.81l5.13,3.9c0.56,0.43,0.95,0.34,1.32-0.15L23.66,29.8z"/>
	<path class="st0" d="M29.15,21.84l-0.04-0.17l0.93,1.79l-4.69,4.2c0.1-0.09,0.19-0.2,0.31-0.44c0.12-0.25,0.08-0.57-0.17-0.86
		l-4.45-4.97c-0.26-0.29-0.58-0.35-0.83-0.26s-0.36,0.18-0.47,0.27l4.35-3.9l1.45,0.99l-0.27-0.07c-0.24-0.06-0.81-0.11-1.22-0.05
		c-0.38,0.06-0.7,0.16-0.95,0.3c-0.25,0.13-0.67,0.46-1.24,0.97l-0.67,0.6l2.58,2.88l0.61-0.54c0.77-0.74,0.67-1.45,0.52-1.71
		l-0.05-0.09l1.43,1.6c-0.01-0.01-0.77-0.63-1.83,0.28l-0.61,0.54l2.18,2.43c0.57,0.63,0.98,0.38,1.23,0.15l0.71-0.63
		c0.55-0.49,0.9-1.12,1.08-1.87C29.19,22.67,29.19,22.08,29.15,21.84z"/>
	<path class="st0" d="M38.11,17.84c0.18,0.35,0.49,0.52,0.76,0.5c0.27-0.03,0.42-0.08,0.53-0.14l-2.51,1.31
		c0.12-0.06,0.23-0.15,0.41-0.35c0.17-0.21,0.21-0.56,0.03-0.91l-2.62-5.02c-0.19-0.37-0.34-0.54-0.43-0.49
		c-0.1,0.04-0.07,0.32-0.05,0.65l0.53,7.31l-6.36-4.51c-0.28-0.2-0.44-0.22-0.46-0.03c-0.02,0.12,0.03,0.29,0.16,0.54l2.33,4.47
		c0.27,0.51,0.66,0.8,0.93,0.88c0.48,0.1,0.86-0.07,0.87-0.09l-2.23,1.17c0.07-0.04,0.15-0.08,0.32-0.29
		c0.24-0.29,0.41-0.82-0.01-1.63l-2.35-4.5c-0.69-1.33-1.56-1.17-1.72-1.09l-0.04,0.01l1.69-0.88l5.64,3.97
		c0.72,0.49,0.96,0.31,0.9-0.48l-0.46-6.65l1.45-0.76c-0.05,0.03-0.74,0.44-0.31,1.27L38.11,17.84z"/>
	<path class="st0" d="M45.11,16.1c0.39,0.59,0.83,0.85,1.3,0.78l-2.66,0.6c0,0,0.98-0.28,0.43-1.12l-1.42-2.24l-2.74,0.62
		l-0.29,2.28c-0.13,0.88,0.22,1.25,1.04,1.13l-2.18,0.49c0.54-0.16,0.87-0.73,1-1.68l1.06-7.66l0.06,0.1L45.11,16.1z M40.4,11.99
		l-0.34,2.62l2.63-0.6l-1.52-2.42c-0.24-0.35-0.41-0.52-0.52-0.5C40.56,11.12,40.48,11.42,40.4,11.99z M46.4,16.88l0.05-0.01
		L46.4,16.88z"/>
	<path class="st0" d="M47.64,16.11c0.03,0.39,0.25,0.65,0.5,0.73s0.4,0.09,0.55,0.08l-2.81,0.23c0.13-0.01,0.27-0.05,0.52-0.16
		c0.24-0.12,0.41-0.41,0.38-0.8l-0.53-6.6c-0.03-0.4-0.25-0.65-0.5-0.73c-0.26-0.08-0.39-0.09-0.54-0.08l2.81-0.23
		c-0.14,0.01-0.26,0.05-0.53,0.16c-0.24,0.12-0.41,0.41-0.38,0.8L47.64,16.11z"/>
	<path class="st0" d="M54.67,16.11c0.25,0.49,0.7,0.88,0.94,0.99l0.2,0.08l-1.47-0.08c-0.24-0.27-0.48-0.66-0.75-1.22l-1.04-2
		c-0.54-1.04-1.22-1.03-2.08-1.06l-0.18,3.32c-0.01,0.22,0.05,0.39,0.18,0.53c0.27,0.26,0.47,0.25,0.67,0.27l-2.71-0.15
		c0.14,0.01,0.28,0,0.52-0.08c0.26-0.08,0.45-0.32,0.47-0.71l0.37-6.71c0.02-0.38-0.15-0.64-0.39-0.75
		c-0.25-0.11-0.38-0.13-0.51-0.14c0.31,0.02,0.79,0.03,1.43,0.05c0.64,0.02,1.1,0.04,1.4,0.06c1.58,0.1,2.42,0.36,2.82,1.15
		c0.19,0.33,0.26,0.73,0.22,1.2c-0.08,0.73-0.39,1.28-0.94,1.64c-0.37,0.24-0.78,0.38-1.2,0.39c0.32,0.11,0.63,0.48,0.95,1.1
		L54.67,16.11z M53.88,10.81c0.06-0.91-0.22-1.5-0.83-1.81c-0.61-0.32-1.3-0.42-2.36-0.43l-0.23,4.13c0.29,0.02,0.66,0.02,1.13,0.04
		C52.98,12.73,53.8,11.99,53.88,10.81z"/>
	<path class="st0" d="M61.68,16.96l0.12-0.13l-0.97,1.77l-6.1-1.54c0.13,0.03,0.27,0.04,0.54,0.01c0.27-0.04,0.52-0.25,0.62-0.63
		l1.63-6.47c0.09-0.37-0.03-0.68-0.25-0.83c-0.22-0.15-0.35-0.2-0.49-0.23l5.67,1.43l-0.01,1.76l-0.1-0.26
		c-0.09-0.23-0.36-0.73-0.64-1.04c-0.26-0.28-0.52-0.49-0.79-0.62c-0.25-0.14-0.75-0.3-1.5-0.49l-0.87-0.22l-0.94,3.75l0.79,0.2
		c1.04,0.23,1.58-0.26,1.7-0.52l0.05-0.09l-0.52,2.08c0-0.01,0.09-0.99-1.26-1.36l-0.79-0.2l-0.8,3.17
		c-0.21,0.83,0.24,1.02,0.56,1.11l0.92,0.23c0.71,0.18,1.43,0.12,2.15-0.15C61.01,17.46,61.5,17.12,61.68,16.96z"/>
	<path class="st0" d="M66.16,15.92c0.11-0.22,0.38-0.31,0.59-0.2c0.23,0.11,0.33,0.39,0.22,0.6c-0.12,0.25-0.4,0.33-0.63,0.21
		C66.14,16.43,66.05,16.15,66.16,15.92z"/>
	<path class="st0" d="M70.34,23.77c0.6,0.46,1.22,0.73,1.87,0.8c0.65,0.06,1.19-0.05,1.64-0.34l-1.47,1.24l-4.81-3.7
		c0.11,0.09,0.23,0.15,0.49,0.23c0.26,0.08,0.58-0.02,0.83-0.36l4.02-5.23c0.24-0.31,0.27-0.64,0.12-0.87
		c-0.13-0.22-0.22-0.32-0.33-0.41l2.21,1.7c-0.11-0.09-0.23-0.15-0.49-0.23c-0.26-0.08-0.57,0.03-0.81,0.35l-3.92,5.1
		c-0.43,0.56-0.35,0.94,0.14,1.32L70.34,23.77z"/>
	<path class="st0" d="M78.27,29.3l0.17-0.04l-1.8,0.92l-4.17-4.71c0.09,0.1,0.2,0.19,0.44,0.32c0.25,0.12,0.57,0.09,0.86-0.17
		l5-4.43c0.29-0.25,0.36-0.57,0.26-0.83c-0.1-0.25-0.17-0.36-0.27-0.47l3.88,4.38l-1,1.45l0.07-0.27c0.06-0.24,0.12-0.81,0.06-1.22
		c-0.06-0.38-0.15-0.7-0.3-0.95c-0.13-0.25-0.45-0.67-0.96-1.25l-0.6-0.67l-2.89,2.56l0.54,0.61c0.74,0.78,1.45,0.67,1.7,0.53
		l0.09-0.05l-1.61,1.43c0.01-0.01,0.63-0.77-0.27-1.83L76.93,24l-2.45,2.17c-0.64,0.57-0.38,0.98-0.16,1.23l0.63,0.71
		c0.49,0.55,1.11,0.91,1.87,1.09C77.44,29.34,78.03,29.34,78.27,29.3z"/>
	<path class="st0" d="M82.21,38.28c-0.35,0.18-0.52,0.48-0.5,0.76c0.03,0.27,0.08,0.42,0.14,0.53l-1.3-2.52
		c0.06,0.12,0.15,0.23,0.35,0.41c0.21,0.17,0.56,0.21,0.91,0.03l5.03-2.59c0.37-0.19,0.54-0.33,0.49-0.43
		c-0.04-0.1-0.32-0.08-0.65-0.06l-7.31,0.48l4.55-6.34c0.21-0.28,0.22-0.44,0.03-0.46c-0.12-0.02-0.29,0.03-0.54,0.16l-4.48,2.31
		c-0.51,0.26-0.81,0.66-0.88,0.93c-0.1,0.48,0.06,0.86,0.08,0.87l-1.15-2.24c0.04,0.07,0.08,0.15,0.29,0.32
		c0.29,0.24,0.82,0.41,1.63,0l4.51-2.32c1.33-0.69,1.18-1.55,1.1-1.71l-0.01-0.04l0.87,1.7l-4,5.61c-0.5,0.71-0.32,0.96,0.48,0.9
		l6.65-0.42l0.75,1.45c-0.03-0.05-0.44-0.75-1.27-0.32L82.21,38.28z"/>
	<path class="st0" d="M83.92,45.29c-0.59,0.39-0.85,0.83-0.78,1.29l-0.59-2.66c0,0,0.28,0.98,1.12,0.44l2.25-1.41l-0.61-2.74
		l-2.28-0.31c-0.88-0.14-1.25,0.22-1.13,1.04l-0.48-2.18c0.16,0.54,0.72,0.87,1.67,1.01l7.66,1.1l-0.1,0.06L83.92,45.29z
		 M83.14,46.58l0.01,0.05L83.14,46.58z M88.06,40.6l-2.62-0.35l0.58,2.64l2.43-1.51c0.35-0.24,0.52-0.41,0.5-0.52
		C88.93,40.77,88.63,40.69,88.06,40.6z"/>
	<path class="st0" d="M83.91,47.83c-0.39,0.03-0.66,0.24-0.73,0.5s-0.09,0.4-0.08,0.55l-0.21-2.81c0.01,0.13,0.04,0.27,0.16,0.52
		c0.12,0.24,0.4,0.41,0.8,0.39l6.6-0.5c0.39-0.03,0.66-0.24,0.73-0.5c0.08-0.26,0.09-0.39,0.08-0.54l0.21,2.81
		c-0.01-0.14-0.04-0.26-0.16-0.53c-0.11-0.24-0.4-0.41-0.8-0.38L83.91,47.83z"/>
	<path class="st0" d="M83.87,54.86c-0.5,0.25-0.88,0.69-0.99,0.94L82.79,56l0.09-1.47c0.27-0.24,0.67-0.48,1.22-0.74l2.01-1.03
		c1.04-0.54,1.03-1.21,1.07-2.08l-3.32-0.2c-0.22-0.01-0.39,0.05-0.53,0.17c-0.26,0.27-0.26,0.47-0.27,0.67l0.16-2.71
		c-0.01,0.14,0,0.28,0.08,0.52c0.08,0.26,0.32,0.45,0.71,0.48l6.71,0.4c0.38,0.02,0.65-0.14,0.76-0.39
		c0.11-0.25,0.13-0.38,0.14-0.51c-0.02,0.31-0.04,0.79-0.06,1.43c-0.03,0.64-0.04,1.1-0.07,1.4c-0.11,1.58-0.37,2.42-1.17,2.82
		c-0.33,0.18-0.74,0.26-1.2,0.22c-0.73-0.08-1.27-0.4-1.64-0.95c-0.24-0.38-0.37-0.78-0.38-1.2c-0.12,0.32-0.48,0.63-1.1,0.94
		L83.87,54.86z M89.18,54.09c0.91,0.07,1.5-0.21,1.82-0.82c0.32-0.61,0.43-1.3,0.44-2.35l-4.13-0.25c-0.02,0.29-0.03,0.66-0.04,1.13
		C87.26,53.19,87.99,54.01,89.18,54.09z"/>
	<path class="st0" d="M82.98,61.86l0.13,0.12L81.34,61l1.57-6.09c-0.03,0.13-0.05,0.27-0.02,0.54c0.04,0.27,0.25,0.52,0.62,0.62
		l6.46,1.66c0.37,0.1,0.67-0.03,0.83-0.25c0.16-0.22,0.2-0.35,0.24-0.48l-1.46,5.66l-1.75-0.02l0.26-0.09
		c0.23-0.09,0.74-0.36,1.04-0.64c0.28-0.26,0.49-0.52,0.62-0.78c0.14-0.25,0.3-0.75,0.5-1.5l0.22-0.87l-3.74-0.96l-0.2,0.79
		c-0.23,1.04,0.25,1.58,0.52,1.71l0.09,0.05l-2.08-0.54c0.01,0,0.99,0.09,1.36-1.25l0.2-0.79l-3.16-0.81
		c-0.83-0.21-1.03,0.23-1.11,0.56l-0.24,0.92c-0.18,0.71-0.13,1.43,0.14,2.16C82.49,61.19,82.82,61.68,82.98,61.86z"/>
	<path class="st0" d="M83.99,66.35c0.21,0.11,0.31,0.38,0.2,0.6c-0.11,0.23-0.39,0.33-0.61,0.22c-0.25-0.12-0.32-0.4-0.21-0.63
		C83.48,66.32,83.76,66.24,83.99,66.35z"/>
	<path class="st0" d="M76.12,70.48c-0.46,0.6-0.74,1.22-0.81,1.86c-0.06,0.65,0.05,1.19,0.33,1.64l-1.24-1.48l3.73-4.79
		c-0.09,0.11-0.15,0.23-0.23,0.49s0.02,0.58,0.35,0.84l5.21,4.05c0.31,0.24,0.64,0.27,0.87,0.13c0.22-0.13,0.32-0.22,0.41-0.33
		l-1.71,2.2c0.09-0.11,0.15-0.23,0.23-0.49c0.08-0.26-0.03-0.57-0.34-0.81l-5.09-3.96c-0.56-0.43-0.94-0.35-1.32,0.13L76.12,70.48z"
		/>
	<path class="st0" d="M70.56,78.37l0.04,0.17l-0.91-1.8l4.73-4.14c-0.1,0.09-0.19,0.2-0.32,0.44c-0.12,0.25-0.09,0.57,0.16,0.86
		l4.4,5.01c0.25,0.29,0.57,0.36,0.82,0.27s0.36-0.17,0.47-0.27l-4.39,3.85l-1.44-1l0.27,0.07c0.24,0.06,0.81,0.12,1.22,0.06
		c0.38-0.06,0.7-0.15,0.95-0.29c0.25-0.13,0.68-0.45,1.25-0.95l0.68-0.59l-2.54-2.9l-0.61,0.54c-0.78,0.73-0.68,1.44-0.54,1.7
		l0.04,0.09l-1.42-1.61c0.01,0.01,0.77,0.64,1.83-0.26l0.61-0.54l-2.15-2.45c-0.56-0.64-0.98-0.39-1.23-0.17l-0.71,0.62
		c-0.55,0.48-0.91,1.1-1.1,1.86C70.53,77.54,70.52,78.13,70.56,78.37z"/>
	<path class="st0" d="M61.54,82.27c-0.18-0.35-0.48-0.52-0.75-0.5c-0.27,0.03-0.42,0.08-0.54,0.14l2.52-1.28
		c-0.12,0.06-0.24,0.15-0.42,0.35c-0.18,0.21-0.22,0.55-0.04,0.91l2.56,5.05c0.19,0.37,0.33,0.54,0.43,0.5
		c0.1-0.04,0.08-0.32,0.06-0.65l-0.44-7.31l6.31,4.58c0.28,0.21,0.44,0.22,0.46,0.03c0.02-0.12-0.03-0.29-0.15-0.54l-2.28-4.49
		c-0.26-0.51-0.65-0.81-0.92-0.89c-0.48-0.1-0.86,0.06-0.87,0.08l2.25-1.14c-0.08,0.04-0.15,0.08-0.33,0.29
		c-0.24,0.29-0.42,0.82-0.01,1.63l2.3,4.53c0.68,1.34,1.55,1.19,1.71,1.11l0.04-0.01l-1.7,0.86l-5.59-4.04
		c-0.71-0.5-0.96-0.32-0.9,0.47l0.38,6.66l-1.45,0.74c0.05-0.03,0.75-0.43,0.32-1.27L61.54,82.27z"/>
	<path class="st0" d="M53.21,83.16l0.05-0.01L53.21,83.16z M58.88,90.68l0.06,0.1l1.14-7.65c0.14-0.95,0.47-1.51,1.02-1.67
		l-2.18,0.47c0.82-0.12,1.17,0.26,1.03,1.14l-0.32,2.28l-2.75,0.59l-1.4-2.25c-0.54-0.84,0.45-1.12,0.45-1.12l-2.66,0.58
		c0.47-0.06,0.9,0.2,1.29,0.79L58.88,90.68z M58.95,88.99c-0.11,0.02-0.28-0.15-0.51-0.5l-1.5-2.44l2.64-0.57l-0.37,2.62
		C59.13,88.67,59.05,88.97,58.95,88.99z"/>
	<path class="st0" d="M51.98,83.92c-0.03-0.39-0.24-0.66-0.5-0.74c-0.26-0.08-0.4-0.09-0.55-0.08l2.81-0.2
		c-0.13,0.01-0.27,0.04-0.52,0.16s-0.42,0.4-0.39,0.8l0.46,6.61c0.03,0.4,0.24,0.66,0.5,0.74c0.26,0.08,0.39,0.09,0.54,0.08
		l-2.82,0.2c0.14-0.01,0.26-0.04,0.53-0.16c0.24-0.11,0.42-0.4,0.39-0.8L51.98,83.92z"/>
	<path class="st0" d="M44.98,83.84c-0.24-0.5-0.69-0.89-0.93-1l-0.2-0.08l1.47,0.1c0.24,0.27,0.47,0.67,0.74,1.23l1.02,2.02
		c0.53,1.04,1.21,1.04,2.07,1.08l0.22-3.32c0.01-0.22-0.05-0.39-0.17-0.53c-0.27-0.26-0.46-0.26-0.67-0.27l2.71,0.18
		c-0.14-0.01-0.28-0.01-0.52,0.07c-0.26,0.08-0.45,0.32-0.48,0.7l-0.44,6.71c-0.02,0.38,0.14,0.65,0.38,0.76
		c0.25,0.11,0.38,0.13,0.51,0.14c-0.31-0.02-0.79-0.04-1.43-0.07s-1.1-0.05-1.4-0.08c-1.58-0.11-2.42-0.38-2.81-1.18
		c-0.18-0.34-0.25-0.74-0.21-1.2c0.08-0.73,0.41-1.27,0.96-1.63c0.38-0.24,0.78-0.37,1.2-0.38c-0.32-0.12-0.63-0.49-0.94-1.11
		L44.98,83.84z M45.71,89.16c-0.07,0.91,0.2,1.5,0.81,1.82c0.6,0.33,1.29,0.43,2.35,0.45l0.27-4.13c-0.29-0.02-0.66-0.03-1.13-0.05
		C46.63,87.24,45.8,87.97,45.71,89.16z"/>
	<path class="st0" d="M37.99,82.92l-0.12,0.13l0.99-1.76l6.08,1.6c-0.13-0.03-0.27-0.05-0.54-0.02c-0.27,0.04-0.52,0.25-0.62,0.62
		l-1.7,6.46c-0.1,0.37,0.02,0.68,0.24,0.83s0.34,0.2,0.48,0.24l-5.65-1.49l0.03-1.76l0.09,0.26c0.09,0.23,0.35,0.74,0.63,1.05
		c0.26,0.28,0.52,0.5,0.78,0.63c0.25,0.14,0.75,0.31,1.49,0.5l0.87,0.23l0.98-3.74l-0.79-0.21c-1.04-0.24-1.58,0.24-1.71,0.51
		l-0.05,0.09l0.55-2.08c0,0.01-0.1,0.99,1.24,1.37l0.79,0.21l0.83-3.16c0.22-0.82-0.23-1.03-0.55-1.11l-0.92-0.24
		c-0.71-0.19-1.43-0.14-2.16,0.13C38.66,82.43,38.17,82.76,37.99,82.92z"/>
	<path class="st0" d="M33.47,83.9c-0.11,0.21-0.38,0.3-0.6,0.2c-0.23-0.11-0.33-0.39-0.22-0.61c0.12-0.25,0.4-0.32,0.63-0.21
		C33.5,83.39,33.59,83.67,33.47,83.9z"/>
	<path class="st0" d="M29.39,76.02c-0.59-0.47-1.22-0.74-1.86-0.82c-0.65-0.07-1.19,0.04-1.64,0.32l1.48-1.23l4.77,3.75
		c-0.11-0.09-0.23-0.15-0.49-0.23c-0.26-0.08-0.58,0.02-0.84,0.35l-4.08,5.19c-0.25,0.31-0.27,0.64-0.14,0.87
		c0.13,0.22,0.22,0.32,0.33,0.41l-2.19-1.72c0.11,0.09,0.23,0.15,0.49,0.23s0.57-0.03,0.81-0.34l3.98-5.06
		c0.44-0.56,0.36-0.94-0.12-1.32L29.39,76.02z"/>
	<path class="st0" d="M21.52,70.4l-0.17,0.04l1.81-0.9l4.12,4.75c-0.09-0.1-0.2-0.19-0.44-0.32c-0.25-0.12-0.57-0.09-0.86,0.16
		l-5.04,4.37c-0.29,0.25-0.36,0.57-0.27,0.82c0.09,0.25,0.17,0.36,0.26,0.47l-3.83-4.41l1.01-1.43l-0.07,0.27
		c-0.06,0.24-0.13,0.81-0.07,1.22c0.06,0.38,0.15,0.7,0.29,0.96c0.13,0.26,0.45,0.68,0.95,1.26l0.59,0.68l2.92-2.53l-0.53-0.62
		c-0.73-0.78-1.44-0.69-1.7-0.55l-0.09,0.04l1.62-1.41c-0.01,0.01-0.64,0.76,0.25,1.83l0.53,0.62l2.47-2.14
		c0.64-0.56,0.39-0.98,0.17-1.23l-0.62-0.72c-0.48-0.55-1.1-0.92-1.85-1.11C22.35,70.38,21.76,70.37,21.52,70.4z"/>
	<path class="st0" d="M17.66,61.37c0.35-0.18,0.52-0.48,0.51-0.75c-0.03-0.27-0.08-0.42-0.14-0.54l1.27,2.53
		c-0.06-0.12-0.15-0.24-0.34-0.42c-0.21-0.18-0.55-0.22-0.91-0.04l-5.06,2.54c-0.38,0.19-0.55,0.33-0.5,0.42
		c0.04,0.1,0.32,0.08,0.65,0.06l7.32-0.41l-4.62,6.29c-0.21,0.28-0.22,0.43-0.04,0.46c0.12,0.02,0.3-0.03,0.54-0.15l4.51-2.26
		c0.52-0.26,0.81-0.65,0.9-0.92c0.11-0.48-0.06-0.86-0.08-0.87l1.13,2.25c-0.04-0.08-0.08-0.15-0.28-0.33
		c-0.29-0.25-0.82-0.42-1.63-0.01l-4.54,2.28c-1.34,0.67-1.2,1.54-1.12,1.7l0.01,0.04l-0.86-1.71l4.06-5.57
		c0.5-0.71,0.33-0.96-0.47-0.91l-6.66,0.35l-0.73-1.46c0.03,0.05,0.43,0.75,1.27,0.33L17.66,61.37z"/>
	<path class="st0" d="M16.03,54.33c0.59-0.38,0.86-0.82,0.8-1.28l0.56,2.67c0,0-0.27-0.99-1.11-0.45l-2.26,1.38l0.57,2.75l2.28,0.33
		c0.88,0.15,1.26-0.2,1.15-1.03l0.46,2.19c-0.15-0.54-0.71-0.88-1.66-1.03l-7.64-1.19l0.1-0.06L16.03,54.33z M11.84,58.98l2.62,0.38
		l-0.55-2.64l-2.45,1.48c-0.36,0.23-0.53,0.4-0.51,0.51C10.97,58.8,11.27,58.89,11.84,58.98z M16.83,53.05L16.82,53L16.83,53.05z"/>
	<path class="st0" d="M16.07,51.82c0.4-0.03,0.66-0.24,0.74-0.49s0.09-0.4,0.08-0.55l0.18,2.81c-0.01-0.13-0.04-0.27-0.15-0.52
		c-0.11-0.25-0.4-0.42-0.8-0.39l-6.61,0.43c-0.4,0.03-0.66,0.23-0.74,0.49S8.68,54,8.69,54.14l-0.18-2.81
		c0.01,0.14,0.04,0.26,0.15,0.53c0.11,0.25,0.4,0.42,0.8,0.39L16.07,51.82z"/>
	<path class="st0" d="M16.19,44.79c0.5-0.24,0.89-0.68,1-0.93l0.09-0.2l-0.1,1.47c-0.27,0.23-0.67,0.47-1.23,0.73l-2.02,1.01
		c-1.05,0.53-1.05,1.2-1.09,2.06l3.31,0.23c0.22,0.02,0.39-0.04,0.53-0.17c0.26-0.27,0.26-0.46,0.27-0.67l-0.19,2.7
		c0.01-0.14,0.01-0.28-0.07-0.52c-0.08-0.26-0.32-0.46-0.7-0.48l-6.7-0.47c-0.38-0.03-0.65,0.13-0.76,0.38s-0.13,0.38-0.14,0.51
		c0.02-0.31,0.04-0.79,0.08-1.43c0.03-0.63,0.05-1.1,0.09-1.4c0.12-1.58,0.4-2.41,1.19-2.8c0.34-0.18,0.74-0.25,1.2-0.2
		c0.73,0.09,1.27,0.41,1.63,0.97c0.24,0.38,0.37,0.78,0.37,1.2c0.12-0.32,0.49-0.63,1.11-0.93L16.19,44.79z M10.87,45.5
		c-0.91-0.08-1.5,0.2-1.82,0.8c-0.33,0.6-0.44,1.29-0.47,2.35l4.13,0.29c0.02-0.29,0.03-0.66,0.05-1.13
		C12.78,46.43,12.05,45.6,10.87,45.5z"/>
	<path class="st0" d="M17.14,37.81l-0.13-0.12l1.76,0.99l-1.63,6.08c0.03-0.13,0.05-0.27,0.02-0.54c-0.04-0.27-0.24-0.53-0.62-0.62
		l-6.45-1.73c-0.37-0.1-0.68,0.02-0.83,0.24c-0.16,0.22-0.2,0.34-0.24,0.48l1.52-5.65l1.76,0.04l-0.26,0.09
		c-0.23,0.09-0.74,0.35-1.05,0.63c-0.28,0.26-0.5,0.51-0.63,0.78c-0.14,0.25-0.31,0.75-0.51,1.49l-0.23,0.87l3.73,1l0.21-0.79
		c0.24-1.04-0.23-1.58-0.5-1.71l-0.09-0.05l2.08,0.56c-0.01,0-0.99-0.1-1.38,1.23l-0.21,0.79l3.15,0.85
		c0.82,0.22,1.03-0.22,1.12-0.55l0.25-0.92c0.19-0.71,0.15-1.43-0.12-2.16C17.63,38.49,17.31,37.99,17.14,37.81z"/>
	<path class="st0" d="M16.19,33.3c-0.21-0.11-0.3-0.38-0.19-0.6c0.11-0.22,0.39-0.32,0.61-0.22c0.25,0.13,0.32,0.4,0.2,0.63
		C16.7,33.33,16.41,33.41,16.19,33.3z"/>
</g>
<g>
	<g>
		<path class="st1" d="M36,57.51c-0.13,0-0.26-0.05-0.36-0.15c-0.2-0.2-0.2-0.52,0-0.71l14-14c0.2-0.2,0.52-0.2,0.71,0
			c0.2,0.2,0.2,0.52,0,0.71l-14,14C36.26,57.46,36.13,57.51,36,57.51z"/>
	</g>
	<g>
		<path class="st1" d="M64,57.51c-0.13,0-0.26-0.05-0.36-0.15l-14-14c-0.2-0.2-0.2-0.52,0-0.71c0.2-0.2,0.52-0.2,0.71,0l14,14
			c0.2,0.2,0.2,0.52,0,0.71C64.26,57.46,64.13,57.51,64,57.51z"/>
	</g>
</g>
</svg>
